<?xml version="1.0" standalone="no"?>
<!DOCTYPE svg PUBLIC "-//W3C//DTD SVG 20010904//EN"
 "http://www.w3.org/TR/2001/REC-SVG-20010904/DTD/svg10.dtd">
<svg version="1.0" xmlns="http://www.w3.org/2000/svg"
 width="3240.000000pt" height="4050.000000pt" viewBox="0 0 3240.000000 4050.000000"
 preserveAspectRatio="xMidYMid meet" classname="sidebar_logo">

<g transform="translate(0.000000,4050.000000) scale(0.100000,-0.100000)"
fill="#000000" stroke="none">
<path classname="fill_color" d="M19428 33979 c-5 -3 -21 -59 -35 -124 -66 -316 -179 -618 -300 -803
-56 -86 -197 -222 -270 -260 -121 -64 -165 -74 -330 -79 -244 -8 -510 27 -808
108 -246 67 -749 250 -1360 496 -693 279 -1277 489 -1535 552 -282 69 -550 97
-825 87 -854 -30 -1497 -292 -1998 -815 -201 -210 -360 -444 -517 -756 -352
-701 -542 -1532 -645 -2807 l-6 -78 1176 0 c646 0 1175 2 1175 4 0 2 9 48 20
102 47 231 132 489 215 654 122 243 289 406 491 482 54 20 77 22 269 22 472 0
730 -75 2020 -589 712 -284 1230 -467 1528 -540 783 -193 1528 -137 2132 160
884 435 1491 1388 1789 2811 73 351 147 891 172 1272 l7 102 -34 1 c-251 4
-2324 2 -2331 -2z"/>
<path d="M12662 27919 c-33 -101 -1188 -3653 -2566 -7894 -1377 -4240 -2752
-8470 -3054 -9400 l-549 -1690 2830 -3 c1557 -1 2831 -1 2833 0 1 2 217 797
479 1768 262 971 478 1773 481 1783 5 16 162 17 3110 17 1707 0 3104 -3 3105
-7 0 -5 210 -807 467 -1783 l467 -1775 2819 -3 2818 -2 -6 23 c-12 50 -6289
19122 -6295 19129 -3 3 -1552 9 -3442 13 l-3437 8 -60 -184z m3697 -3769 c199
-888 701 -2900 991 -3970 122 -451 900 -3420 900 -3435 0 -13 -211 -15 -2025
-15 -1827 0 -2025 2 -2025 16 0 8 77 306 171 662 692 2624 1108 4261 1339
5266 190 827 403 1831 475 2231 6 35 14 5 60 -220 29 -143 80 -384 114 -535z"/>
</g>
</svg>
