<?xml version="1.0" encoding="UTF-8"?>
<!DOCTYPE svg PUBLIC "-//W3C//DTD SVG 1.1//EN" "http://www.w3.org/Graphics/SVG/1.1/DTD/svg11.dtd">
<svg xmlns="http://www.w3.org/2000/svg" version="1.1" width="3240px" height="4050px" style="shape-rendering:geometricPrecision; text-rendering:geometricPrecision; image-rendering:optimizeQuality; fill-rule:evenodd; clip-rule:evenodd" xmlns:xlink="http://www.w3.org/1999/xlink">
<g><path style="opacity:0.995" fill="#5ce0e5" d="M 1829.5,777.5 C 1805.29,776.493 1781.63,772.326 1758.5,765C 1702.47,746.052 1647.47,724.886 1593.5,701.5C 1598.92,684.804 1603.26,667.804 1606.5,650.5C 1686.17,650.5 1765.83,650.5 1845.5,650.5C 1842.65,693.16 1837.32,735.493 1829.5,777.5 Z"/></g>
<g><path style="opacity:0.998" fill="#fe1616" d="M 1674.5,1055.5 C 1616.11,1031.42 1557.11,1008.59 1497.5,987C 1470.04,977.982 1441.87,973.149 1413,972.5C 1388.47,971.432 1368.47,980.432 1353,999.5C 1341.02,1015.12 1332.52,1032.45 1327.5,1051.5C 1321.78,1067.39 1317.78,1083.72 1315.5,1100.5C 1236.5,1100.83 1157.5,1100.5 1078.5,1099.5C 1081.36,1057.25 1086.36,1015.25 1093.5,973.5C 1103.55,911.856 1122.71,853.189 1151,797.5C 1166.97,768.516 1187.13,742.683 1211.5,720C 1221.78,711.203 1232.45,703.037 1243.5,695.5C 1276.45,675.46 1312.11,662.626 1350.5,657C 1407.22,647.969 1462.55,653.302 1516.5,673C 1542.23,682.409 1567.9,691.909 1593.5,701.5C 1647.47,724.886 1702.47,746.052 1758.5,765C 1781.63,772.326 1805.29,776.493 1829.5,777.5C 1858.36,782.256 1882.53,773.923 1902,752.5C 1917.24,731.013 1927.91,707.346 1934,681.5C 1936.65,671.25 1938.81,660.917 1940.5,650.5C 2020.17,650.5 2099.83,650.5 2179.5,650.5C 2176.05,713.848 2166.21,776.182 2150,837.5C 2135.88,889.574 2113.88,937.907 2084,982.5C 2021.55,1067.29 1937.38,1105.46 1831.5,1097C 1803.98,1094.83 1776.98,1089.83 1750.5,1082C 1724.88,1073.85 1699.54,1065.01 1674.5,1055.5 Z"/></g>
<g><path style="opacity:0.998" fill="#5ce0e5" d="M 1243.5,695.5 C 1232.45,703.037 1221.78,711.203 1211.5,720C 1187.13,742.683 1166.97,768.516 1151,797.5C 1122.71,853.189 1103.55,911.856 1093.5,973.5C 1057.41,967.966 1029.91,980.633 1011,1011.5C 995.967,1039.1 985.8,1068.43 980.5,1099.5C 901.836,1100.5 823.169,1100.83 744.5,1100.5C 748.004,1033.14 758.171,966.806 775,901.5C 786.999,856.845 804.999,814.845 829,775.5C 875.199,706.114 940.033,666.281 1023.5,656C 1065.95,650.164 1107.95,652.497 1149.5,663C 1181.25,672.749 1212.58,683.582 1243.5,695.5 Z"/></g>
<g><path style="opacity:0.997" fill="#5ce0e5" d="M 1674.5,1055.5 C 1628.64,1084.89 1578.31,1098.89 1523.5,1097.5C 1484.56,1097.77 1446.56,1091.94 1409.5,1080C 1382.02,1070.78 1354.69,1061.28 1327.5,1051.5C 1332.52,1032.45 1341.02,1015.12 1353,999.5C 1368.47,980.432 1388.47,971.432 1413,972.5C 1441.87,973.149 1470.04,977.982 1497.5,987C 1557.11,1008.59 1616.11,1031.42 1674.5,1055.5 Z"/></g>
<g><path style="opacity:0.999" fill="#5ce0e5" d="M 1271.5,1239.5 C 1063.56,1877.98 856.228,2516.65 649.5,3155.5C 648.662,3155.84 648.328,3156.51 648.5,3157.5C 536.831,3157.83 425.165,3157.5 313.5,3156.5C 315.301,3151.93 316.801,3147.26 318,3142.5C 524.168,2508.49 730.334,1874.49 936.5,1240.5C 1048.16,1239.5 1159.83,1239.17 1271.5,1239.5 Z"/></g>
<g><path style="opacity:0.999" fill="#fe1616" d="M 1271.5,1239.5 C 1501.17,1239.5 1730.83,1239.5 1960.5,1239.5C 2170.7,1878.77 2380.7,2518.1 2590.5,3157.5C 2402.5,3157.5 2214.5,3157.5 2026.5,3157.5C 1995.33,3038.47 1963.99,2919.47 1932.5,2800.5C 1820.84,2799.5 1709.17,2799.17 1597.5,2799.5C 1502.5,2799.33 1407.5,2799.5 1312.5,2800C 1280.17,2919 1247.83,3038 1215.5,3157C 1103.83,3157.5 992.167,3157.67 880.5,3157.5C 803.5,3156.83 726.5,3156.17 649.5,3155.5C 856.228,2516.65 1063.56,1877.98 1271.5,1239.5 Z M 1454.5,2242.5 C 1466.92,2286.53 1478.59,2330.86 1489.5,2375.5C 1466.17,2375.5 1442.83,2375.5 1419.5,2375.5C 1431.63,2331.31 1443.3,2286.98 1454.5,2242.5 Z"/></g>
<g><path style="opacity:1" fill="#5ce0e5" d="M 1824.5,2374.5 C 1713,2375.5 1601.33,2375.83 1489.5,2375.5C 1478.59,2330.86 1466.92,2286.53 1454.5,2242.5C 1490.6,2104.11 1525.76,1965.45 1560,1826.5C 1581.21,1736.47 1600.87,1646.13 1619,1555.5C 1643.16,1670.81 1670.16,1785.48 1700,1899.5C 1741.97,2057.73 1783.47,2216.06 1824.5,2374.5 Z"/></g>
<g><path style="opacity:1" fill="#a5888a" d="M 1824.5,2374.5 C 1825.04,2374.56 1825.38,2374.89 1825.5,2375.5C 1690,2376.83 1554.67,2376.83 1419.5,2375.5C 1442.83,2375.5 1466.17,2375.5 1489.5,2375.5C 1601.33,2375.83 1713,2375.5 1824.5,2374.5 Z"/></g>
<g><path style="opacity:0.999" fill="#5ce0e5" d="M 1597.5,2799.5 C 1709.17,2799.17 1820.84,2799.5 1932.5,2800.5C 1963.99,2919.47 1995.33,3038.47 2026.5,3157.5C 1914.83,3157.83 1803.16,3157.5 1691.5,3156.5C 1659.76,3037.6 1628.42,2918.6 1597.5,2799.5 Z"/></g>
<g><path style="opacity:0.847" fill="#d14e4f" d="M 649.5,3155.5 C 726.5,3156.17 803.5,3156.83 880.5,3157.5C 803.167,3157.5 725.833,3157.5 648.5,3157.5C 648.328,3156.51 648.662,3155.84 649.5,3155.5 Z"/></g>
</svg>
